<svg width="80" height="81" viewBox="0 0 80 81" fill="none" xmlns="http://www.w3.org/2000/svg">
<path d="M68 40.2842C68 55.7482 55.464 68.2842 40 68.2842C24.536 68.2842 12 55.7482 12 40.2842C12 24.8202 24.536 12.2842 40 12.2842C55.464 12.2842 68 24.8202 68 40.2842Z" fill="url(#paint0_linear_4201_6874)"/>
<path d="M37.3267 46.3296V46.1847C37.3428 44.6473 37.5038 43.4239 37.8097 42.5143C38.1155 41.6047 38.5502 40.8682 39.1136 40.3048C39.6771 39.7413 40.3532 39.2222 41.142 38.7472C41.617 38.4575 42.0436 38.1154 42.4219 37.721C42.8002 37.3185 43.098 36.8557 43.3153 36.3325C43.5407 35.8093 43.6534 35.2297 43.6534 34.5938C43.6534 33.805 43.4683 33.1208 43.098 32.5413C42.7277 31.9617 42.2327 31.515 41.6129 31.2011C40.9931 30.8872 40.3049 30.7302 39.5483 30.7302C38.8883 30.7302 38.2524 30.867 37.6406 31.1407C37.0289 31.4144 36.5178 31.845 36.1072 32.4326C35.6967 33.0202 35.4593 33.7889 35.3949 34.7387H32.3523C32.4167 33.3704 32.7708 32.1992 33.4148 31.2252C34.0668 30.2513 34.924 29.5067 35.9865 28.9916C37.0571 28.4764 38.2443 28.2188 39.5483 28.2188C40.965 28.2188 42.1965 28.5006 43.2429 29.064C44.2973 29.6275 45.1103 30.4002 45.6818 31.3822C46.2614 32.3642 46.5511 33.483 46.5511 34.7387C46.5511 35.6241 46.4143 36.425 46.1406 37.1414C45.875 37.8578 45.4886 38.4977 44.9815 39.0612C44.4825 39.6246 43.8788 40.1237 43.1705 40.5583C42.4621 41.001 41.8947 41.4679 41.468 41.9589C41.0414 42.4418 40.7315 43.0174 40.5384 43.6855C40.3452 44.3535 40.2405 45.1866 40.2244 46.1847V46.3296H37.3267ZM38.8722 53.4774C38.2765 53.4774 37.7654 53.2641 37.3388 52.8374C36.9122 52.4108 36.6989 51.8997 36.6989 51.3041C36.6989 50.7084 36.9122 50.1973 37.3388 49.7707C37.7654 49.3441 38.2765 49.1308 38.8722 49.1308C39.4678 49.1308 39.9789 49.3441 40.4055 49.7707C40.8322 50.1973 41.0455 50.7084 41.0455 51.3041C41.0455 51.6985 40.9448 52.0607 40.7436 52.3907C40.5504 52.7207 40.2888 52.9864 39.9588 53.1876C39.6368 53.3808 39.2746 53.4774 38.8722 53.4774Z" fill="white"/>
<defs>
<linearGradient id="paint0_linear_4201_6874" x1="40" y1="12.2842" x2="40" y2="68.2842" gradientUnits="userSpaceOnUse">
<stop stop-color="#FF8A65"/>
<stop offset="1" stop-color="#F4511E"/>
</linearGradient>
</defs>
</svg>
